<svg width="70" height="70" viewBox="0 0 70 70" fill="none" xmlns="http://www.w3.org/2000/svg">
<circle cx="35" cy="35" r="35" fill="#6F4E37"/>
<path d="M48.6687 41.1857L43.8612 40.6368C43.2959 40.5704 42.723 40.633 42.1853 40.8198C41.6477 41.0067 41.1594 41.313 40.7572 41.7156L37.2746 45.1982C31.9016 42.4656 27.5344 38.0983 24.8017 32.7253L28.3032 29.2238C29.1171 28.4099 29.5146 27.2743 29.3821 26.1197L28.8332 21.3501C28.7259 20.4268 28.2828 19.5752 27.5882 18.9574C26.8937 18.3397 25.9962 17.9989 25.0667 18H21.7924C19.6536 18 17.8745 19.7791 18.007 21.9179C19.0101 38.0816 31.9372 50.9899 48.0819 51.993C50.2207 52.1255 51.9998 50.3464 51.9998 48.2076V44.9332C52.0187 43.0216 50.5803 41.4128 48.6687 41.1857Z" fill="#FFF5E1"/>
</svg>
