<svg width="70" height="70" viewBox="0 0 70 70" fill="none" xmlns="http://www.w3.org/2000/svg">
<circle cx="35" cy="35" r="35" fill="#6F4E37"/>
<path d="M46.8748 44.7539L44.4891 47.104C42.7304 48.8215 40.4492 51.0315 37.6434 53.7339C36.8002 54.546 35.673 55 34.5 55C33.327 55 32.1998 54.546 31.3566 53.7339L24.3401 46.9358C23.4557 46.073 22.7201 45.3464 22.1252 44.7539C19.6779 42.3162 18.0113 39.2105 17.3362 35.8296C16.661 32.4486 17.0077 28.9441 18.3322 25.7593C19.6568 22.5745 21.8998 19.8525 24.7777 17.9373C27.6555 16.0222 31.0389 15 34.5 15C37.9611 15 41.3445 16.0222 44.2223 17.9373C47.1002 19.8525 49.3432 22.5745 50.6678 25.7593C51.9923 28.9441 52.339 32.4486 51.6638 35.8296C50.9887 39.2105 49.3221 42.3162 46.8748 44.7539ZM39.5247 32.9793C39.5247 31.652 38.9953 30.3791 38.053 29.4406C37.1107 28.502 35.8326 27.9748 34.5 27.9748C33.1674 27.9748 31.8893 28.502 30.947 29.4406C30.0047 30.3791 29.4753 31.652 29.4753 32.9793C29.4753 34.3065 30.0047 35.5795 30.947 36.518C31.8893 37.4565 33.1674 37.9838 34.5 37.9838C35.8326 37.9838 37.1107 37.4565 38.053 36.518C38.9953 35.5795 39.5247 34.3065 39.5247 32.9793Z" fill="#FFF5E1"/>
</svg>
