<svg width="17" height="22" viewBox="0 0 17 22" fill="none" xmlns="http://www.w3.org/2000/svg">
<path d="M8.53124 0C7.45025 0 6.41353 0.462788 5.64915 1.28656C4.88477 2.11032 4.45535 3.22759 4.45535 4.39258C4.45535 5.55756 4.88477 6.67483 5.64915 7.4986C6.41353 8.32237 7.45025 8.78516 8.53124 8.78516C9.61224 8.78516 10.649 8.32237 11.4133 7.4986C12.1777 6.67483 12.6071 5.55756 12.6071 4.39258C12.6071 3.22759 12.1777 2.11032 11.4133 1.28656C10.649 0.462788 9.61224 0 8.53124 0ZM6.4933 4.39258C6.4933 3.81009 6.70801 3.25145 7.0902 2.83957C7.47239 2.42768 7.99075 2.19629 8.53124 2.19629C9.07174 2.19629 9.5901 2.42768 9.97229 2.83957C10.3545 3.25145 10.5692 3.81009 10.5692 4.39258C10.5692 4.97507 10.3545 5.53371 9.97229 5.94559C9.5901 6.35747 9.07174 6.58887 8.53124 6.58887C7.99075 6.58887 7.47239 6.35747 7.0902 5.94559C6.70801 5.53371 6.4933 4.97507 6.4933 4.39258ZM13.6261 10.9814H3.43638C2.62563 10.9814 1.84809 11.3285 1.27481 11.9464C0.701523 12.5642 0.379456 13.4021 0.379456 14.2759C0.379456 16.7269 1.31487 18.6904 2.84945 20.0192C4.35957 21.326 6.38528 21.9629 8.53124 21.9629C10.6772 21.9629 12.7029 21.326 14.213 20.0192C15.7456 18.6904 16.683 16.7269 16.683 14.2759C16.683 13.4021 16.361 12.5642 15.7877 11.9464C15.2144 11.3285 14.4369 10.9814 13.6261 10.9814ZM3.43638 13.1777H13.6261C13.8964 13.1777 14.1555 13.2934 14.3466 13.4994C14.5377 13.7053 14.6451 13.9846 14.6451 14.2759C14.6451 16.0702 13.9827 17.4012 12.9373 18.3061C11.8653 19.2329 10.3246 19.7666 8.53124 19.7666C6.73785 19.7666 5.19716 19.2329 4.1252 18.3061C3.07974 17.4012 2.4174 16.0702 2.4174 14.2759C2.4174 13.9846 2.52476 13.7053 2.71585 13.4994C2.90695 13.2934 3.16613 13.1777 3.43638 13.1777Z" fill="white"/>
</svg>
