<svg width="24" height="26" viewBox="0 0 24 26" fill="none" xmlns="http://www.w3.org/2000/svg">
<path d="M22.3795 23.9629L17.4624 18.6638M17.4624 18.6638C18.3035 17.7574 18.9707 16.6813 19.4259 15.497C19.8811 14.3126 20.1153 13.0433 20.1153 11.7614C20.1153 10.4795 19.8811 9.2102 19.4259 8.02589C18.9707 6.84158 18.3035 5.76549 17.4624 4.85906C16.6213 3.95262 15.6228 3.2336 14.5239 2.74304C13.425 2.25249 12.2471 2 11.0577 2C9.8682 2 8.69038 2.25249 7.59145 2.74304C6.49252 3.2336 5.49401 3.95262 4.65293 4.85906C2.95429 6.68968 2 9.17253 2 11.7614C2 14.3503 2.95429 16.8332 4.65293 18.6638C6.35157 20.4944 8.65543 21.5228 11.0577 21.5228C13.4599 21.5228 15.7638 20.4944 17.4624 18.6638Z" stroke="white" stroke-width="2.5" stroke-linecap="round" stroke-linejoin="round"/>
</svg>
